<mxfile host="app.diagrams.net" modified="2023-10-12T15:41:04.245Z" agent="Mozilla/5.0 (Windows NT 10.0; Win64; x64) AppleWebKit/537.36 (KHTML, like Gecko) Chrome/118.0.0.0 Safari/537.36" etag="vMiKSIUHBFDhtacz4Gz6" version="22.0.4" type="device">
  <diagram name="Page-1" id="bdiBhD32l-VLTxHATTrI">
    <mxGraphModel dx="1434" dy="768" grid="1" gridSize="10" guides="1" tooltips="1" connect="1" arrows="1" fold="1" page="1" pageScale="1" pageWidth="827" pageHeight="1169" math="0" shadow="0">
      <root>
        <mxCell id="0" />
        <mxCell id="1" parent="0" />
        <mxCell id="4FKMhhFWWCtFY7xfciTD-2" value="" style="endArrow=classic;html=1;rounded=0;startArrow=circle;startFill=0;endFill=1;shadow=0;strokeOpacity=100;" edge="1" parent="1">
          <mxGeometry relative="1" as="geometry">
            <mxPoint x="430" y="120" as="sourcePoint" />
            <mxPoint x="540" y="120" as="targetPoint" />
          </mxGeometry>
        </mxCell>
        <mxCell id="4FKMhhFWWCtFY7xfciTD-15" value="â€¢" style="edgeLabel;html=1;align=center;verticalAlign=middle;resizable=0;points=[];imageAspect=0;allowArrows=0;perimeter=rectanglePerimeter;labelBackgroundColor=none;fontSize=30;" vertex="1" connectable="0" parent="4FKMhhFWWCtFY7xfciTD-2">
          <mxGeometry x="-0.8645" relative="1" as="geometry">
            <mxPoint x="-1" y="-1" as="offset" />
          </mxGeometry>
        </mxCell>
        <mxCell id="4FKMhhFWWCtFY7xfciTD-6" value="" style="html=1;verticalAlign=bottom;startArrow=circle;startFill=1;endArrow=classic;startSize=6;endSize=8;curved=0;rounded=0;endFill=1;" edge="1" parent="1">
          <mxGeometry width="80" relative="1" as="geometry">
            <mxPoint x="190" y="120" as="sourcePoint" />
            <mxPoint x="270" y="120" as="targetPoint" />
          </mxGeometry>
        </mxCell>
      </root>
    </mxGraphModel>
  </diagram>
</mxfile>
